<svg width="24" height="24" viewBox="0 0 24 24" fill="none" xmlns="http://www.w3.org/2000/svg">
<g clip-path="url(#clip0_69_2)">
<path d="M15.82 13.91C15.82 14.6655 15.596 15.4041 15.1762 16.0323C14.7565 16.6605 14.1599 17.1501 13.4618 17.4392C12.7638 17.7283 11.9958 17.804 11.2547 17.6566C10.5137 17.5092 9.83308 17.1454 9.29885 16.6111C8.76461 16.0769 8.40079 15.3962 8.25339 14.6552C8.106 13.9142 8.18165 13.1462 8.47078 12.4481C8.7599 11.7501 9.24952 11.1535 9.87772 10.7338C10.5059 10.314 11.2445 10.09 12 10.09C13.0131 10.09 13.9848 10.4925 14.7011 11.2088C15.4175 11.9252 15.82 12.8969 15.82 13.91Z" stroke="black" stroke-width="2" stroke-miterlimit="10"/>
<path d="M12 5.32C13.0549 5.32 13.91 4.46486 13.91 3.41C13.91 2.35514 13.0549 1.5 12 1.5C10.9452 1.5 10.09 2.35514 10.09 3.41C10.09 4.46486 10.9452 5.32 12 5.32Z" stroke="black" stroke-width="2" stroke-miterlimit="10"/>
<path d="M3.41 22.5C4.46486 22.5 5.32 21.6449 5.32 20.59C5.32 19.5351 4.46486 18.68 3.41 18.68C2.35514 18.68 1.5 19.5351 1.5 20.59C1.5 21.6449 2.35514 22.5 3.41 22.5Z" stroke="black" stroke-width="2" stroke-miterlimit="10"/>
<path d="M20.59 22.5C21.6449 22.5 22.5 21.6449 22.5 20.59C22.5 19.5351 21.6449 18.68 20.59 18.68C19.5351 18.68 18.68 19.5351 18.68 20.59C18.68 21.6449 19.5351 22.5 20.59 22.5Z" stroke="black" stroke-width="2" stroke-miterlimit="10"/>
<path d="M8.97998 16.25L4.91998 19.42" stroke="black" stroke-width="2" stroke-miterlimit="10"/>
<path d="M19.08 19.42L15.02 16.25" stroke="black" stroke-width="2" stroke-miterlimit="10"/>
<path d="M12 10.09V5.32" stroke="black" stroke-width="2" stroke-miterlimit="10"/>
</g>
<defs>
<clipPath id="clip0_69_2">
<rect width="24" height="24" fill="white"/>
</clipPath>
</defs>
</svg>
